<svg width="14" height="13" viewBox="0 0 14 13" fill="none" xmlns="http://www.w3.org/2000/svg">
<path fill-rule="evenodd" clip-rule="evenodd" d="M0.800049 1.9001C0.800049 1.42271 0.989691 0.964871 1.32726 0.627305C1.66482 0.28974 2.12266 0.100098 2.60005 0.100098H6.20005C6.43874 0.100098 6.66766 0.194919 6.83644 0.363702C7.00523 0.532484 7.10005 0.761403 7.10005 1.0001C7.10005 1.23879 7.00523 1.46771 6.83644 1.63649C6.66766 1.80528 6.43874 1.9001 6.20005 1.9001H2.60005V10.9001H11.6V7.3001C11.6 7.0614 11.6949 6.83248 11.8637 6.6637C12.0324 6.49492 12.2614 6.4001 12.5 6.4001C12.7387 6.4001 12.9677 6.49492 13.1364 6.6637C13.3052 6.83248 13.4 7.0614 13.4 7.3001V10.9001C13.4 11.3775 13.2104 11.8353 12.8728 12.1729C12.5353 12.5105 12.0774 12.7001 11.6 12.7001H2.60005C2.12266 12.7001 1.66482 12.5105 1.32726 12.1729C0.989691 11.8353 0.800049 11.3775 0.800049 10.9001V1.9001Z" fill="white"/>
</svg>
